<svg width="42" height="44" viewBox="0 0 42 44" fill="none" xmlns="http://www.w3.org/2000/svg">
<g clip-path="url(#clip0_1_2461)">
<path d="M28.2233 24.7621L39.5653 13.9313C40.4175 13.1243 40.8952 12.0126 40.8952 10.8649L40.9139 2.11423C40.9139 1.66593 40.736 1.23557 40.4082 0.912796L18.6516 21.7047C16.8814 23.3813 16.8721 26.1159 18.6235 27.8015L18.6516 27.8284L33.9926 42.4697C35.7628 44.1553 38.6287 44.1463 40.3801 42.4518C42.1408 40.7572 42.1315 38.0136 40.3613 36.337L28.2233 24.7621Z" fill="#328965"/>
<path d="M40.6808 -2.44312H5.0135C2.1308 -2.44312 0.000536694 -0.297117 0.000536694 2.62838V39.2741C-0.0385508 41.8435 2.0624 43.9607 4.67149 43.9992H4.78875C7.38806 44.0473 9.53787 41.9975 9.58673 39.4377V6.5932H33.3128L42 -1.92346C41.6482 -2.2699 41.1792 -2.46237 40.6808 -2.44312Z" fill="#58E1A5"/>
</g>
<defs>
<clipPath id="clip0_1_2461">
<rect width="42" height="44" fill="white"/>
</clipPath>
</defs>
</svg>
