<svg width="705" height="221" viewBox="0 0 705 221" fill="none" xmlns="http://www.w3.org/2000/svg">
<path d="M128.597 120.841L178.399 71.071C182.141 67.363 184.238 62.2541 184.238 56.9804L184.321 16.7687C184.321 14.7086 183.539 12.731 182.1 11.2478L86.5674 106.792C78.7948 114.496 78.7537 127.063 86.444 134.808L86.5674 134.932L153.93 202.213C161.702 209.958 174.286 209.917 181.977 202.13C189.708 194.343 189.667 181.736 181.894 174.031L128.597 120.841Z" fill="#008B62"/>
<path d="M176.548 9.14654H26.4431C14.3114 9.14654 5.34619 18.3343 5.34619 30.8593V187.751C5.18169 198.752 14.0235 207.816 25.0038 207.981H25.4973C36.4364 208.187 45.4839 199.411 45.6895 188.452V47.8339H145.54L182.1 11.3714C180.619 9.88815 178.645 9.06414 176.548 9.14654Z" fill="#5BBE91"/>
<path d="M260.401 60.8945V88.0457H248.434V16.2742H280.635C297.701 16.2742 306.255 24.3495 306.255 36.7097C306.255 47.2159 298.688 54.5908 287.626 56.6508C290.957 57.1452 293.507 57.928 295.686 59.4113C299.717 62.0481 301.855 66.8686 304.24 75.1499L307.859 88.0457H295.111L291.779 75.3559C288.736 63.4489 285.775 60.8945 273.232 60.8945H260.401ZM260.401 26.698V52.1599H277.18C288.16 52.1599 294.37 47.2571 294.37 39.0994C294.37 31.23 289.476 26.698 277.674 26.698H260.401ZM343.021 89.0345C324.062 89.0345 314.48 76.9215 314.48 60.8121C314.48 45.1971 325.09 31.8893 342.651 31.8893C360.499 31.8893 368.97 44.6614 368.97 59.6173V63.7373H326.036C326.9 73.2546 332.616 79.0639 342.815 79.0639C350.176 79.0639 354.412 76.0151 357.62 70.3294L367.531 75.8503C362.966 83.4312 355.317 89.0345 343.021 89.0345ZM326.16 56.28H357.291C356.798 47.8339 352.397 41.7362 342.568 41.7362C333.233 41.7362 327.517 47.2159 326.16 56.28ZM403.762 32.3013C412.809 32.3013 418.896 36.3389 422.309 44.2082V32.9605H434.071V109.264H422.186V76.5095C418.443 84.3788 411.699 88.7049 402.734 88.7049C389.697 88.7049 379.087 79.3523 379.087 60.7709C379.128 41.8186 391.219 32.3013 403.762 32.3013ZM423.214 60.4001C423.214 49.6879 418.32 41.8186 407.134 41.8186C396.935 41.8186 391.219 49.2759 391.219 60.6061C391.219 72.0186 396.606 78.8991 407.134 78.8991C418.197 78.8991 423.214 71.0298 423.214 60.4001ZM499.459 88.0457H487.574V74.9851C483.832 84.42 477.087 89.1581 468.615 89.1581C455.25 89.1581 448.876 80.2176 448.876 66.745V32.9605H460.761V63.4489C460.761 72.9662 464.01 79.0639 473.509 79.0639C482.063 79.0639 487.451 71.7714 487.451 59.9057V32.9605H499.418L499.459 88.0457ZM540.707 89.0345C521.749 89.0345 512.167 76.9215 512.167 60.8121C512.167 45.1971 522.777 31.8893 540.337 31.8893C558.185 31.8893 566.657 44.6614 566.657 59.6173V63.7373H523.764C524.627 73.2546 530.344 79.0639 540.543 79.0639C547.904 79.0639 552.14 76.0151 555.347 70.3294L565.258 75.8503C560.611 83.4312 552.962 89.0345 540.707 89.0345ZM523.805 56.28H554.936C554.443 47.8339 550.042 41.7362 540.214 41.7362C530.878 41.7362 525.203 47.2159 523.805 56.28ZM583.394 70.041C587.918 76.0563 593.511 79.1875 601.654 79.1875C609.426 79.1875 612.634 75.4383 612.634 71.5242C612.634 65.8385 604.203 65.3441 594.087 63.6549C584.094 62.0893 576.814 58.752 576.814 48.9051C576.814 39.2642 584.875 31.6833 598.611 31.6833C609.796 31.6833 617.651 35.1441 624.231 42.9722L615.102 50.7591C610.866 44.6614 605.602 41.695 597.911 41.695C590.262 41.695 587.219 45.1558 587.219 48.9875C587.219 54.014 593.593 55.0028 602.929 56.3624C613.621 57.928 623.244 60.4825 623.244 71.5242C623.244 81.6596 615.102 89.2405 601.366 89.2405C588.905 89.2405 580.187 84.9968 574.758 78.2399L583.394 70.041ZM669.838 86.8508C667.001 88.2105 663.958 88.9933 659.845 88.9933C647.96 88.9933 643.149 82.6896 643.149 70.4942V42.7662H630.606V32.9605H643.272V18.9111L654.376 12.2366V32.9605H669.88V42.8074H654.376V69.1758C654.376 76.2623 657.213 78.8167 662.6 78.8167C665.561 78.8167 667.33 78.3223 669.88 77.2511L669.838 86.8508ZM259.99 210.205H248.393V138.434H262.622L293.753 190.759L296.797 197.351L296.385 190.264V138.434H307.983V210.205H294.617L262.416 155.821L259.291 149.929L259.99 156.727V210.205ZM349.601 211.194C330.642 211.194 321.06 199.081 321.06 182.972C321.06 167.357 331.67 154.049 349.231 154.049C367.079 154.049 375.55 166.821 375.55 181.777V185.897H332.616C333.48 195.414 339.196 201.224 349.395 201.224C356.756 201.224 360.992 198.175 364.2 192.489L374.111 198.01C369.546 205.591 361.856 211.194 349.601 211.194ZM332.74 178.44H363.871C363.377 169.994 358.977 163.896 349.148 163.896C339.772 163.896 334.097 169.417 332.74 178.44ZM421.24 209.052C418.402 210.411 415.359 211.235 411.247 211.235C399.362 211.235 394.55 204.932 394.55 192.736V165.008H382.007V155.161H394.673V141.112L405.777 134.438V155.203H421.281V165.05H405.777V191.418C405.777 198.504 408.615 201.059 414.002 201.059C416.963 201.059 418.731 200.564 421.281 199.493L421.24 209.052ZM458.663 210.205H443.941L429.999 155.161H442.255L451.672 195.662L452.865 202.831L454.427 195.662L466.395 155.161H476.018L487.697 195.579L489.054 203.037L490.329 195.662L500.652 155.161H512.742L497.444 210.205H483.215L472.522 171.848L471.165 165.956L469.89 171.971L458.663 210.205ZM519.775 182.683C519.775 166.45 530.261 154.09 547.945 154.09C565.916 154.09 576.033 166.656 576.033 182.683C576.033 198.628 565.546 211.194 547.945 211.194C529.809 211.194 519.775 199.122 519.775 182.683ZM563.86 182.683C563.86 171.559 558.966 164.02 547.945 164.02C537.129 164.02 531.947 171.889 531.947 182.683C531.947 193.602 536.677 201.059 547.945 201.059C559.049 201.059 563.86 193.519 563.86 182.683ZM625.506 156.521L622.175 167.439C619.543 165.75 616.582 164.967 612.84 164.967C605.972 164.967 600.749 170.653 600.749 182.271V210.205H588.864V155.161H600.749V168.428C603.217 158.787 607.905 154.379 615.965 154.379C619.995 154.379 623.039 155.161 625.506 156.521ZM647.096 186.227L672.799 155.161H686.617L665.808 179.635L687.892 210.205H673.745L656.062 184.537L647.014 194.961V210.205H635.129V131.924H647.014V186.227H647.096Z" fill="#050B20"/>
</svg>
