<?xml version="1.0" standalone="no"?>
<!DOCTYPE svg PUBLIC "-//W3C//DTD SVG 20010904//EN"
 "http://www.w3.org/TR/2001/REC-SVG-20010904/DTD/svg10.dtd">
<svg version="1.0" xmlns="http://www.w3.org/2000/svg"
 width="704.000000pt" height="704.000000pt" viewBox="0 0 704.000000 704.000000"
 preserveAspectRatio="xMidYMid meet">
<metadata>
Created by potrace 1.14, written by Peter Selinger 2001-2017
</metadata>
<g transform="translate(0.000000,704.000000) scale(0.100000,-0.100000)"
fill="#000000" stroke="none">
<path d="M247 7003 c-42 -98 -56 -133 -52 -133 3 0 0 -11 -5 -25 -5 -14 -13
-38 -17 -53 -11 -38 -14 -6107 -3 -6162 30 -161 93 -286 198 -396 88 -92 229
-175 357 -210 79 -21 281 -27 360 -9 159 35 278 98 385 204 118 117 184 243
216 411 4 19 7 1232 8 2695 l1 2660 1897 0 c1043 0 1899 2 1902 5 19 18 631
617 829 812 l242 238 -3151 0 -3150 0 -17 -37z"/>
<path d="M6574 6847 c-23 -23 -103 -100 -178 -172 -75 -71 -176 -168 -225
-215 -49 -47 -152 -146 -230 -220 -78 -74 -185 -177 -239 -228 -53 -52 -164
-157 -246 -235 -81 -78 -180 -173 -220 -210 -170 -163 -264 -253 -436 -417
-101 -96 -207 -197 -235 -225 -29 -27 -132 -126 -230 -220 -99 -93 -200 -190
-225 -215 -26 -25 -122 -117 -214 -205 -93 -88 -192 -182 -220 -210 -29 -27
-123 -117 -210 -200 -421 -402 -441 -425 -502 -590 -9 -25 -13 -43 -17 -75 -2
-14 -6 -30 -10 -36 -13 -21 -3 -189 15 -258 38 -141 95 -233 214 -348 42 -40
111 -107 154 -148 43 -41 149 -142 235 -225 87 -82 184 -175 215 -205 32 -30
133 -127 226 -215 92 -88 186 -178 209 -200 23 -22 118 -112 210 -200 92 -88
200 -191 241 -230 40 -38 139 -133 220 -210 81 -77 178 -169 215 -205 36 -36
131 -126 209 -200 79 -74 177 -169 220 -210 112 -110 161 -147 256 -196 46
-24 86 -44 89 -44 3 0 6 0 8 -1 1 0 10 -2 21 -4 10 -2 39 -9 65 -15 108 -25
281 -15 389 24 23 8 42 13 42 9 0 -3 6 -1 13 4 6 6 39 25 72 43 33 18 65 38
71 44 7 6 29 25 49 41 53 43 127 139 164 214 109 216 87 498 -55 688 -36 49
-136 149 -374 373 -72 69 -169 161 -215 205 -45 44 -146 141 -225 215 -78 74
-172 164 -210 200 -37 36 -124 119 -194 185 -69 66 -164 156 -210 200 -46 44
-148 142 -227 217 -79 76 -196 187 -259 247 l-114 110 64 61 c114 108 381 363
456 435 40 39 141 135 225 215 84 80 171 163 194 185 23 22 114 110 204 195
485 462 633 604 684 655 105 107 170 235 194 385 7 39 6 1542 0 1566 -10 39
-61 115 -76 113 -3 0 -25 -19 -47 -42z"/>
</g>
</svg>
